<?xml version="1.0" standalone="no"?>
<!DOCTYPE svg PUBLIC "-//W3C//DTD SVG 1.1//EN" "http://www.w3.org/Graphics/SVG/1.1/DTD/svg11.dtd"><svg t="1707217400100"
    class="icon" viewBox="0 0 1024 1024" version="1.1" xmlns="http://www.w3.org/2000/svg" p-id="2546"
    xmlns:xlink="http://www.w3.org/1999/xlink" width="200" height="200">
    <path d="M241.664 550.912l-26.624 112.64 53.248-4.096z" fill="#EDA1AE" p-id="2547"></path>
    <path d="M268.288 659.456l-53.248 4.096 61.44 18.432z" fill="#F1C0C5" opacity=".431" p-id="2548"></path>
    <path d="M305.152 495.616l-63.488 55.296 114.688-14.336z" fill="#EB8EA0" p-id="2549"></path>
    <path d="M323.584 497.664l-18.432-2.048 51.2 40.96z" fill="#A176A1" p-id="2550"></path>
    <path d="M241.664 550.912l26.624 108.544 88.064-122.88z" fill="#ED99A8" p-id="2551"></path>
    <path d="M268.288 659.456l8.192 22.528 79.872-145.408z" fill="#EC98A8" p-id="2552"></path>
    <path d="M292.864 808.96l55.296 67.584 12.288-24.576z" fill="#DFB1AA" opacity=".435" p-id="2553"></path>
    <path d="M305.152 495.616l18.432 2.048 40.96-32.768z" fill="#5B414C" p-id="2554"></path>
    <path d="M358.4 358.4l-53.248 137.216 59.392-30.72z" fill="#803846" p-id="2555"></path>
    <path d="M323.584 497.664l32.768 38.912 8.192-71.68z" fill="#3A3539" p-id="2556"></path>
    <path d="M360.448 851.968l-12.288 24.576 94.208-4.096z" fill="#DE918B" p-id="2557"></path>
    <path d="M432.128 837.632l-71.68 14.336 81.92 20.48z" fill="#DA7063" p-id="2558"></path>
    <path d="M356.352 536.576l-79.872 145.408 165.888 63.488z" fill="#EF93A2" p-id="2559"></path>
    <path d="M292.864 808.96l67.584 43.008 81.92-106.496z" fill="#D2C59B" p-id="2560"></path>
    <path d="M360.448 851.968l71.68-14.336 10.24-92.16z" fill="#D3B6BA" p-id="2561"></path>
    <path d="M276.48 681.984l16.384 126.976 149.504-63.488z" fill="#D3BBB9" p-id="2562"></path>
    <path d="M432.128 837.632l10.24 34.816 12.288-20.48z" fill="#AC2728" opacity=".996" p-id="2563"></path>
    <path d="M442.368 745.472l-10.24 92.16 22.528 14.336z" fill="#D0AEBE" p-id="2564"></path>
    <path d="M364.544 464.896l-8.192 71.68 118.784 10.24z" fill="#ED8F9D" p-id="2565"></path>
    <path d="M356.352 536.576l86.016 208.896 32.768-198.656z" fill="#F092A0" p-id="2566"></path>
    <path d="M448.512 212.992l-90.112 145.408 161.792 131.072z" fill="#F398A7" p-id="2567"></path>
    <path d="M358.4 358.4l6.144 106.496 155.648 24.576z" fill="#ED8B98" p-id="2568"></path>
    <path d="M364.544 464.896l110.592 81.92 45.056-57.344z" fill="#EE8C99" p-id="2569"></path>
    <path d="M475.136 546.816l-32.768 198.656 124.928-184.32z" fill="#F59599" p-id="2570"></path>
    <path d="M520.192 489.472l-45.056 57.344 92.16 14.336z" fill="#231721" p-id="2571"></path>
    <path d="M516.096 886.784l8.192 28.672 45.056-32.768z" fill="#DF758B" p-id="2572"></path>
    <path d="M567.296 561.152l-124.928 184.32 167.936 6.144z" fill="#FAAFB6" p-id="2573"></path>
    <path d="M516.096 886.784l53.248-4.096 40.96-131.072z" fill="#D3E134" p-id="2574"></path>
    <path d="M442.368 745.472l12.288 106.496 155.648-100.352z" fill="#D5AEA7" p-id="2575"></path>
    <path d="M454.656 851.968l61.44 34.816 94.208-135.168z" fill="#CCD92A" p-id="2576"></path>
    <path d="M577.536 104.448l-129.024 108.544 174.08-16.384z" fill="#FBB2BB" p-id="2577"></path>
    <path d="M581.632 104.448h-4.096l45.056 92.16z" fill="#FFB9C3" p-id="2578"></path>
    <path d="M569.344 882.688l-45.056 32.768 104.448-24.576z" fill="#F2A0A4" p-id="2579"></path>
    <path d="M610.304 751.616l-40.96 131.072 83.968-55.296z" fill="#DEE945" p-id="2580"></path>
    <path d="M569.344 882.688l59.392 8.192 24.576-63.488z" fill="#F0BCC8" p-id="2581"></path>
    <path d="M448.512 212.992l71.68 276.48 141.312-149.504z" fill="#FAB5BA" p-id="2582"></path>
    <path d="M622.592 196.608l-174.08 16.384 212.992 126.976z" fill="#FEC3C7" p-id="2583"></path>
    <path d="M610.304 751.616l43.008 75.776 30.72-102.4z" fill="#E4EB4F" p-id="2584"></path>
    <path d="M567.296 561.152l43.008 190.464 73.728-26.624z" fill="#FEC1C6" p-id="2585"></path>
    <path d="M567.296 561.152l116.736 163.84 18.432-192.512z" fill="#FEC3C7" p-id="2586"></path>
    <path d="M520.192 489.472l47.104 71.68 135.168-28.672z" fill="#FEC3C5" p-id="2587"></path>
    <path d="M661.504 339.968l-141.312 149.504 182.272 43.008z" fill="#FFC4C8" p-id="2588"></path>
    <path d="M702.464 532.48l-18.432 192.512 108.544-55.296z" fill="#FFACB4" p-id="2589"></path>
    <path d="M684.032 724.992l98.304 63.488 10.24-118.784z" fill="#FE9EAC" p-id="2590"></path>
</svg>